<svg width="24" height="26" viewBox="0 0 24 26" fill="none" xmlns="http://www.w3.org/2000/svg">
<path d="M23.6137 16.4138L21.9331 15.0303C22.231 13.6295 22.231 12.1817 21.9331 10.7809L23.6137 9.39742C23.8075 9.23861 23.9385 9.01599 23.9831 8.76941C24.0278 8.52284 23.9832 8.26843 23.8573 8.05174L22.1322 5.06388C22.0075 4.84648 21.8094 4.6806 21.5735 4.59598C21.3376 4.51135 21.0793 4.51351 20.8448 4.60207L18.805 5.3663C17.7424 4.40623 16.4888 3.68168 15.1264 3.2402L14.7685 1.09406C14.728 0.846721 14.6007 0.621901 14.4095 0.459894C14.2183 0.297886 13.9756 0.209283 13.7249 0.209965H10.2748C10.0242 0.209292 9.78152 0.297891 9.59028 0.459886C9.39905 0.621881 9.27176 0.846683 9.23122 1.094L8.87352 3.2402C7.51118 3.68167 6.25757 4.40622 5.19497 5.3663L3.15494 4.60197C2.92049 4.51347 2.66219 4.51134 2.42631 4.59597C2.19044 4.6806 1.99241 4.84646 1.8677 5.06382L0.142633 8.0519C0.0168199 8.2686 -0.0277347 8.52302 0.0169489 8.76959C0.0616326 9.01615 0.192635 9.23876 0.386495 9.39753L2.06692 10.7809C1.769 12.1817 1.769 13.6295 2.06692 15.0303L0.386336 16.4138C0.192508 16.5726 0.0615406 16.7952 0.0168869 17.0418C-0.0277668 17.2883 0.0168092 17.5428 0.142633 17.7595L1.86776 20.7473C1.99248 20.9647 2.19054 21.1306 2.42644 21.2152C2.66235 21.2998 2.92069 21.2977 3.15515 21.2091L5.19502 20.4449C6.25763 21.405 7.51123 22.1295 8.87358 22.571L9.23128 24.7171C9.2718 24.9645 9.39908 25.1893 9.5903 25.3513C9.78152 25.5133 10.0242 25.6019 10.2748 25.6012H13.7249C13.9756 25.6019 14.2182 25.5133 14.4095 25.3513C14.6007 25.1893 14.728 24.9645 14.7685 24.7172L15.1263 22.571C16.4886 22.1295 17.7422 21.405 18.8048 20.4449L20.8448 21.2092C21.0793 21.2977 21.3376 21.2998 21.5734 21.2152C21.8093 21.1306 22.0073 20.9647 22.132 20.7474L23.857 17.7593C23.9829 17.5427 24.0275 17.2883 23.9829 17.0418C23.9383 16.7952 23.8074 16.5726 23.6137 16.4138ZM20.9351 19.4353L18.3902 18.4819L18.0049 18.8698C16.9446 19.9385 15.6184 20.705 14.1631 21.0902L13.6341 21.2296L13.1874 23.9085H10.8128L10.3662 21.2296L9.83723 21.0902C8.38193 20.705 7.05575 19.9385 5.99548 18.8698L5.61011 18.4819L3.0648 19.4353L1.8777 17.3788L3.97402 15.653L3.83119 15.1255C3.43841 13.6716 3.43841 12.1396 3.83119 10.6857L3.97402 10.1582L1.8777 8.43245L3.06506 6.37586L5.60995 7.32931L5.99532 6.94135C7.05559 5.87267 8.38177 5.10621 9.83707 4.72104L10.3661 4.5816L10.8126 1.90272H13.1874L13.634 4.5816L14.1629 4.72104C15.6182 5.10621 16.9444 5.87267 18.0047 6.94135L18.3901 7.32931L20.935 6.37586L22.1224 8.4324L20.0261 10.1582L20.1689 10.6857C20.5617 12.1396 20.5617 13.6716 20.1689 15.1255L20.0261 15.653L22.1224 17.3787L20.9351 19.4353Z" fill="#666666"/>
</svg>
